<svg width="22" height="22" viewBox="0 0 22 22" fill="none" xmlns="http://www.w3.org/2000/svg">
<path d="M10.9987 1.83337C9.79491 1.83337 8.60292 2.07048 7.49077 2.53114C6.37862 2.99181 5.36809 3.66702 4.51689 4.51823C2.7978 6.23731 1.83203 8.56889 1.83203 11C1.83203 15.0517 4.46286 18.4892 8.10203 19.7084C8.56036 19.7817 8.70703 19.4975 8.70703 19.25V17.7009C6.16786 18.2509 5.62703 16.4725 5.62703 16.4725C5.20536 15.4092 4.60953 15.125 4.60953 15.125C3.77536 14.5567 4.6737 14.575 4.6737 14.575C5.59036 14.6392 6.0762 15.5192 6.0762 15.5192C6.8737 16.9125 8.2212 16.5 8.7437 16.28C8.8262 15.6842 9.06453 15.2809 9.3212 15.0517C7.2862 14.8225 5.15036 14.0342 5.15036 10.5417C5.15036 9.52421 5.4987 8.70837 6.09453 8.05754C6.00286 7.82837 5.68203 6.87504 6.1862 5.63754C6.1862 5.63754 6.9562 5.39004 8.70703 6.57254C9.4312 6.37087 10.2195 6.27004 10.9987 6.27004C11.7779 6.27004 12.5662 6.37087 13.2904 6.57254C15.0412 5.39004 15.8112 5.63754 15.8112 5.63754C16.3154 6.87504 15.9945 7.82837 15.9029 8.05754C16.4987 8.70837 16.847 9.52421 16.847 10.5417C16.847 14.0434 14.702 14.8134 12.6579 15.0425C12.9879 15.3267 13.2904 15.8859 13.2904 16.7384V19.25C13.2904 19.4975 13.437 19.7909 13.9045 19.7084C17.5437 18.48 20.1654 15.0517 20.1654 11C20.1654 9.79626 19.9283 8.60426 19.4676 7.49211C19.0069 6.37996 18.3317 5.36943 17.4805 4.51823C16.6293 3.66702 15.6188 2.99181 14.5066 2.53114C13.3945 2.07048 12.2025 1.83337 10.9987 1.83337Z" fill="currentColor"/>
</svg>
